
        <svg xmlns="http://www.w3.org/2000/svg" xmlns:xlink="http://www.w3.org/1999/xlink" version="1.1" width="3162.0205094816747" height="1080.9625509886089" viewBox="0 0 3162.0205094816747 1080.9625509886089">
			
			<g transform="scale(8.101025474083734) translate(10, 10)">
				<defs id="SvgjsDefs1538"/><g id="SvgjsG1539" featureKey="symbolFeature-0" transform="matrix(1.263072369188318,0,0,1.263072369188318,-6.31536184594159,-6.436615232274325)" fill="#fff"><g xmlns="http://www.w3.org/2000/svg" style="" display="none"><rect x="-823.25" y="-1066.25" style="" width="1596.16" height="1545.155" display="inline"/></g><g xmlns="http://www.w3.org/2000/svg"><path d="M39.004,48.484c2.489,0,4.897-0.286,7.184-0.81c-0.47-0.576-0.899-1.177-1.291-1.795c-1.889,0.374-3.862,0.576-5.893,0.576   c-1.909,0-3.887-0.199-5.876-0.592l-0.392-0.077l-11.674,7.24l3.593-10.287l-0.69-0.429c-6.058-3.769-9.531-9.425-9.531-15.519   c0-10.843,11.022-19.665,24.571-19.665c9.953,0,18.536,4.763,22.394,11.588c0.718-0.099,1.446-0.17,2.184-0.213   c-4.001-7.861-13.51-13.405-24.579-13.405c-14.667,0-26.601,9.733-26.601,21.695c0,6.573,3.562,12.657,9.803,16.802l-4.955,14.184   l15.878-9.845C35.115,48.298,37.09,48.484,39.004,48.484z"/><path d="M71.15,52.231L71.15,52.231l13.242,5.804l-5.225-9.618L79,48.111c3.249-2.856,5.026-6.548,5.026-10.48   c0-8.491-8.439-15.399-18.812-15.399c-10.373,0-18.812,6.908-18.812,15.399c0,7.104,5.917,13.084,13.923,14.853   c1.562,0.345,3.196,0.546,4.889,0.546c1.645,0,3.285-0.192,4.897-0.551C70.458,52.401,70.806,52.325,71.15,52.231z M48.432,37.63   c0-7.371,7.528-13.369,16.782-13.369s16.782,5.997,16.782,13.369c0,3.559-1.747,6.912-4.918,9.442l-0.664,0.53l3.365,6.194   l-8.484-3.718l-0.354,0.103c-1.869,0.542-3.796,0.818-5.727,0.818C55.96,50.999,48.432,45.002,48.432,37.63z"/><circle cx="55.954" cy="38.186" r="2.379"/><circle cx="65.214" cy="38.186" r="2.379"/><circle cx="74.474" cy="38.186" r="2.379"/><path d="M17.713,81.797c3.687,0,6.803-2.439,7.826-5.792c0.231-0.757,0.357-1.56,0.357-2.392c0-2.939-1.554-5.508-3.88-6.951   c-1.251-0.777-2.723-1.233-4.304-1.233c-4.52,0-8.184,3.664-8.184,8.184S13.193,81.797,17.713,81.797z M17.713,67.46   c3.393,0,6.153,2.76,6.153,6.153c0,3.393-2.76,6.154-6.153,6.154c-3.393,0-6.154-2.76-6.154-6.154   C11.559,70.22,14.32,67.46,17.713,67.46z"/><path d="M20.886,87.396c4.141,0,7.51,3.368,7.51,7.509h1.015h1.015c0-5.26-4.279-9.539-9.54-9.539H14.54   c-5.261,0-9.54,4.279-9.54,9.539h1.015H7.03c0-4.141,3.369-7.509,7.51-7.509H20.886z"/><path d="M42.173,76.006c1.023,3.352,4.139,5.792,7.827,5.792s6.803-2.439,7.827-5.792c0.231-0.757,0.357-1.56,0.357-2.392   c0-3.724-2.49-6.861-5.894-7.853c-0.727-0.212-1.494-0.331-2.29-0.331s-1.563,0.119-2.29,0.331   c-3.404,0.991-5.894,4.129-5.894,7.853C41.816,74.446,41.942,75.249,42.173,76.006z M50,67.46c3.393,0,6.154,2.76,6.154,6.153   c0,3.393-2.76,6.154-6.154,6.154s-6.154-2.76-6.154-6.154C43.846,70.22,46.607,67.46,50,67.46z"/><path d="M39.317,94.905c0-4.141,3.369-7.509,7.51-7.509h6.345c4.141,0,7.51,3.368,7.51,7.509h1.015h1.015   c0-5.26-4.279-9.539-9.54-9.539h-6.345c-5.261,0-9.54,4.279-9.54,9.539h1.015H39.317z"/><path d="M82.287,81.797c4.52,0,8.184-3.664,8.184-8.184s-3.664-8.184-8.184-8.184c-1.581,0-3.052,0.456-4.304,1.233   c-2.326,1.443-3.88,4.013-3.88,6.951c0,0.832,0.126,1.635,0.357,2.392C75.484,79.358,78.599,81.797,82.287,81.797z M82.287,67.46   c3.393,0,6.154,2.76,6.154,6.153c0,3.393-2.76,6.154-6.154,6.154s-6.154-2.76-6.154-6.154C76.133,70.22,78.894,67.46,82.287,67.46z   "/><path d="M85.46,85.366h-6.345c-5.261,0-9.54,4.279-9.54,9.539h1.015h1.015c0-4.141,3.369-7.509,7.51-7.509h6.345   c4.141,0,7.51,3.368,7.51,7.509h1.015H95C95,89.645,90.721,85.366,85.46,85.366z"/></g></g><g id="SvgjsG1540" featureKey="nameFeature-0" transform="matrix(2.196804844236798,0,0,2.196804844236798,134,-19.86783016634892)" fill="#fff"><path d="M13.84 11.36 l0 3.84 l-4.76 0 l0 24.84 l-3.84 0 l0 -24.84 l-5.24 0 l0 -3.84 l13.84 0 z M22.787 11.440000000000001 l3.8 0 l0 28.52 l-3.8 0 l0 -15.08 l-3.4 0 l0 15.08 l-3.8 0 l0 -28.52 l3.8 0 l0 9.68 l3.4 0 l0 -9.68 z M38.334 24.92 l-5.52 0 l0 11.28 l5.56 0 l0 3.8 l-9.36 0 l0 -28.56 l9.36 0 l0 3.8 l-5.56 0 l0 5.88 l5.52 0 l0 3.8 z M63.068 11.36 l0 3.84 l-4.76 0 l0 24.84 l-3.84 0 l0 -24.84 l-5.24 0 l0 -3.84 l13.84 0 z M69.73500000000001 40.04 c-3 0 -5.4 -2.44 -5.4 -5.4 l0 -17.96 c0 -2.96 2.4 -5.36 5.4 -5.36 c2.96 0 5.36 2.4 5.36 5.36 l0 17.96 c0 2.96 -2.4 5.4 -5.36 5.4 z M69.73500000000001 15.120000000000001 c-0.88 0 -1.56 0.72 -1.56 1.56 l0 17.96 c0 0.88 0.68 1.56 1.56 1.56 c0.84 0 1.56 -0.68 1.56 -1.56 l0 -17.96 c0 -0.84 -0.72 -1.56 -1.56 -1.56 z M81.322 34 l0 5.96 l-3.8 0 l0 -28.52 l5.92 0 c2.64 0 4.76 2.16 4.76 4.8 l0 13 c0 2.64 -2.12 4.76 -4.76 4.76 l-2.12 0 z M81.322 15.239999999999998 l0 14.96 l2.12 0 c0.56 0 0.96 -0.4 0.96 -0.96 l0 -13 c0 -0.56 -0.4 -1 -0.96 -1 l-2.12 0 z M94.429 11.36 l0 28.48 l-3.8 0 l0 -28.48 l3.8 0 z M102.21600000000001 39.92 c-2.96 0 -5.36 -2.4 -5.36 -5.36 l0 -17.76 c0 -2.96 2.4 -5.36 5.36 -5.36 s5.36 2.4 5.36 5.36 l0 1.6 l-3.8 0 l0 -1.6 c0 -0.84 -0.72 -1.56 -1.56 -1.56 s-1.56 0.72 -1.56 1.56 l0 17.76 c0 0.84 0.72 1.56 1.56 1.56 s1.56 -0.72 1.56 -1.56 l0 -2.56 l3.8 0 l0 2.56 c0 2.96 -2.4 5.36 -5.36 5.36 z"/></g><g id="SvgjsG1541" featureKey="sloganFeature-0" transform="matrix(2.097977105505367,0,0,2.097977105505367,134,66.12544990296553)" fill="#fff"><path d="M6.92 5.68 l0 1.92 l-2.38 0 l0 12.42 l-1.92 0 l0 -12.42 l-2.62 0 l0 -1.92 l6.92 0 z M19.2205 20.02 c-1.5 0 -2.7 -1.22 -2.7 -2.7 l0 -8.98 c0 -1.48 1.2 -2.68 2.7 -2.68 c1.48 0 2.68 1.2 2.68 2.68 l0 8.98 c0 1.48 -1.2 2.7 -2.68 2.7 z M19.2205 7.5600000000000005 c-0.44 0 -0.78 0.36 -0.78 0.78 l0 8.98 c0 0.44 0.34 0.78 0.78 0.78 c0.42 0 0.78 -0.34 0.78 -0.78 l0 -8.98 c0 -0.42 -0.36 -0.78 -0.78 -0.78 z M33.981 17 l0 2.98 l-1.9 0 l0 -14.26 l2.96 0 c1.32 0 2.38 1.08 2.38 2.4 l0 6.5 c0 1.32 -1.06 2.38 -2.38 2.38 l-1.06 0 z M33.981 7.619999999999999 l0 7.48 l1.06 0 c0.28 0 0.48 -0.2 0.48 -0.48 l0 -6.5 c0 -0.28 -0.2 -0.5 -0.48 -0.5 l-1.06 0 z M54.5215 5.68 l0 1.92 l-2.38 0 l0 12.42 l-1.92 0 l0 -12.42 l-2.62 0 l0 -1.92 l6.92 0 z M66.822 20.02 c-1.5 0 -2.7 -1.22 -2.7 -2.7 l0 -8.98 c0 -1.48 1.2 -2.68 2.7 -2.68 c1.48 0 2.68 1.2 2.68 2.68 l0 8.98 c0 1.48 -1.2 2.7 -2.68 2.7 z M66.822 7.5600000000000005 c-0.44 0 -0.78 0.36 -0.78 0.78 l0 8.98 c0 0.44 0.34 0.78 0.78 0.78 c0.42 0 0.78 -0.34 0.78 -0.78 l0 -8.98 c0 -0.42 -0.36 -0.78 -0.78 -0.78 z M81.58250000000001 17 l0 2.98 l-1.9 0 l0 -14.26 l2.96 0 c1.32 0 2.38 1.08 2.38 2.4 l0 6.5 c0 1.32 -1.06 2.38 -2.38 2.38 l-1.06 0 z M81.58250000000001 7.619999999999999 l0 7.48 l1.06 0 c0.28 0 0.48 -0.2 0.48 -0.48 l0 -6.5 c0 -0.28 -0.2 -0.5 -0.48 -0.5 l-1.06 0 z M97.10300000000001 5.68 l0 14.24 l-1.9 0 l0 -14.24 l1.9 0 z M109.96350000000001 19.96 c-1.48 0 -2.68 -1.2 -2.68 -2.68 l0 -8.88 c0 -1.48 1.2 -2.68 2.68 -2.68 s2.68 1.2 2.68 2.68 l0 0.8 l-1.9 0 l0 -0.8 c0 -0.42 -0.36 -0.78 -0.78 -0.78 s-0.78 0.36 -0.78 0.78 l0 8.88 c0 0.42 0.36 0.78 0.78 0.78 s0.78 -0.36 0.78 -0.78 l0 -1.28 l1.9 0 l0 1.28 c0 1.48 -1.2 2.68 -2.68 2.68 z"/></g>
			</g>
		</svg>
	